<?xml version="1.0" standalone="no"?>
<!DOCTYPE svg PUBLIC "-//W3C//DTD SVG 20010904//EN"
 "http://www.w3.org/TR/2001/REC-SVG-20010904/DTD/svg10.dtd">
<svg version="1.0" xmlns="http://www.w3.org/2000/svg"
 width="32.000000pt" height="32.000000pt" viewBox="0 0 32.000000 32.000000"
 preserveAspectRatio="xMidYMid meet">

<g transform="translate(0.000000,32.000000) scale(0.100000,-0.100000)"
fill="#2D2942" stroke="none">
<path d="M15 210 c-9 -63 3 -150 19 -150 7 0 34 11 60 25 26 14 58 25 71 25
18 0 26 7 31 25 10 42 -3 75 -31 75 -13 0 -45 11 -71 25 -26 14 -53 25 -60 25
-7 0 -15 -20 -19 -50z m82 2 c24 -15 22 -35 -2 -25 -8 3 -15 0 -15 -6 0 -6 5
-11 11 -11 6 0 8 -9 4 -20 -5 -15 -2 -20 11 -20 22 0 10 -13 -31 -34 -27 -14
-30 -14 -37 2 -8 21 -10 90 -2 119 6 23 19 22 61 -5z m50 -69 c-4 -17 -4 -17
-12 0 -4 9 -4 25 0 35 8 16 8 16 12 0 3 -10 3 -26 0 -35z" fill="#2D2942"/>
<path d="M241 242 c-42 -21 -51 -41 -22 -49 22 -5 29 -23 10 -23 -6 0 -8 -8
-4 -19 3 -12 0 -21 -10 -25 -8 -3 -15 -10 -15 -15 0 -14 38 -38 71 -46 26 -6
27 -5 34 44 8 62 -2 151 -18 151 -7 0 -27 -8 -46 -18z" fill="#2D2942"/>
</g>
</svg>
