<svg width="20" height="17" viewBox="0 0 20 17" fill="none" xmlns="http://www.w3.org/2000/svg"><path d="M9.99998 16.9986C9.71525 16.9986 9.44075 16.9057 9.22682 16.7371C8.41887 16.1013 7.63991 15.5037 6.95265 14.9767L6.94914 14.9739C4.93422 13.4286 3.19427 12.094 1.98364 10.7794C0.630339 9.30966 0 7.91619 0 6.3939C0 4.91486 0.563506 3.55036 1.58661 2.55157C2.62191 1.54097 4.0425 0.984375 5.58715 0.984375C6.74162 0.984375 7.7989 1.31287 8.72954 1.96065C9.1992 2.28763 9.62492 2.6878 9.99998 3.15458C10.3752 2.6878 10.8008 2.28763 11.2706 1.96065C12.2012 1.31287 13.2585 0.984375 14.413 0.984375C15.9575 0.984375 17.3782 1.54097 18.4135 2.55157C19.4366 3.55036 20 4.91486 20 6.3939C20 7.91619 19.3698 9.30966 18.0165 10.7792C16.8058 12.094 15.066 13.4284 13.0514 14.9737C12.363 15.5015 11.5828 16.1 10.773 16.7374C10.5592 16.9057 10.2846 16.9986 9.99998 16.9986V16.9986ZM5.58715 2.03879C4.37362 2.03879 3.25881 2.47467 2.44781 3.26623C1.62475 4.06974 1.17141 5.18046 1.17141 6.3939C1.17141 7.67421 1.70013 8.81926 2.88558 10.1066C4.03136 11.3509 5.73561 12.658 7.70888 14.1715L7.71254 14.1743C8.40239 14.7034 9.1844 15.3032 9.9983 15.9437C10.8171 15.302 11.6003 14.7012 12.2915 14.1712C14.2647 12.6577 15.9687 11.3509 17.1145 10.1066C18.2998 8.81926 18.8285 7.67421 18.8285 6.3939C18.8285 5.18046 18.3752 4.06974 17.5521 3.26623C16.7413 2.47467 15.6263 2.03879 14.413 2.03879C13.524 2.03879 12.7078 2.29312 11.9871 2.79464C11.3449 3.24179 10.8975 3.80703 10.6352 4.20254C10.5003 4.40592 10.2629 4.52732 9.99998 4.52732C9.73707 4.52732 9.49965 4.40592 9.36476 4.20254C9.10261 3.80703 8.65523 3.24179 8.01283 2.79464C7.29216 2.29312 6.47597 2.03879 5.58715 2.03879V2.03879Z" fill="#2D2942"/></svg>