<svg width="288" height="37" viewBox="0 0 288 37" fill="none" xmlns="http://www.w3.org/2000/svg">
<path d="M0.94 18.298C0.94 16.4253 1.22267 14.7293 1.788 13.21C2.318 11.6553 3.02467 10.295 3.908 9.129C4.79133 7.92767 5.763 6.88533 6.823 6.002C7.91833 5.08333 8.996 4.32367 10.056 3.723C11.1513 3.12233 12.1583 2.64533 13.077 2.292C14.031 1.93867 14.7907 1.709 15.356 1.603C18.6773 0.896331 21.8397 1.232 24.843 2.61C25.5143 2.89266 26.168 3.246 26.804 3.67C27.4753 4.05867 28.1113 4.44733 28.712 4.836C29.1007 5.048 29.2773 5.24233 29.242 5.419C29.242 5.56033 29.083 5.79 28.765 6.108C27.9523 6.85 27.1397 7.592 26.327 8.334C25.5497 9.04067 24.7547 9.765 23.942 10.507C23.4473 10.9663 22.882 11.0723 22.246 10.825C21.186 10.4363 20.1613 10.2773 19.172 10.348C18.536 10.3833 17.741 10.5777 16.787 10.931C15.8683 11.2843 14.9673 11.8143 14.084 12.521C13.236 13.2277 12.494 14.1463 11.858 15.277C11.2573 16.3723 10.957 17.6973 10.957 19.252C10.957 21.1247 11.3633 22.6263 12.176 23.757C12.9887 24.8523 13.9427 25.6827 15.038 26.248C16.1333 26.8133 17.2287 27.1667 18.324 27.308C19.4547 27.414 20.338 27.414 20.974 27.308C22.1047 27.1313 23.1117 26.7427 23.995 26.142C24.8783 25.506 25.6733 24.7287 26.38 23.81C26.592 23.5627 26.751 23.386 26.857 23.28C26.963 23.1387 27.069 23.0503 27.175 23.015C27.281 22.9797 27.4047 23.015 27.546 23.121C27.6873 23.1917 27.8817 23.3153 28.129 23.492C28.8357 23.9513 29.5247 24.393 30.196 24.817C30.8673 25.241 31.5563 25.7003 32.263 26.195C32.7577 26.5483 33.0403 26.8487 33.111 27.096C33.1817 27.308 33.0933 27.679 32.846 28.209C32.316 29.4103 31.627 30.4703 30.779 31.389C29.931 32.3077 28.9593 33.1203 27.864 33.827C26.592 34.6397 25.267 35.3463 23.889 35.947C22.5463 36.5123 21.08 36.8303 19.49 36.901C16.2393 36.901 13.5187 36.4417 11.328 35.523C9.17267 34.6043 7.406 33.456 6.028 32.078C4.65 30.7 3.60767 29.216 2.901 27.626C2.22967 26.0007 1.75267 24.499 1.47 23.121C1.152 21.743 0.993 20.5947 0.993 19.676C0.957667 18.7573 0.94 18.298 0.94 18.298ZM61.2263 16.019C61.7209 16.1957 62.1626 16.3723 62.5513 16.549C62.9399 16.7257 63.3286 16.9023 63.7173 17.079C64.0353 17.2203 64.3886 17.503 64.7773 17.927C65.1659 18.351 65.5193 18.9163 65.8373 19.623C66.1906 20.3297 66.4733 21.1953 66.6853 22.22C66.9326 23.2093 67.0563 24.34 67.0563 25.612C67.0563 26.6367 66.8089 27.6613 66.3143 28.686C65.8196 29.7107 65.1836 30.6823 64.4063 31.601C63.6643 32.4843 62.8339 33.2793 61.9153 33.986C60.9966 34.6573 60.1133 35.152 59.2653 35.47C57.9933 35.9647 56.6859 36.3003 55.3433 36.477C54.0359 36.6537 52.7109 36.7597 51.3683 36.795C51.2976 36.795 51.2269 36.7773 51.1563 36.742C51.0856 36.742 51.0149 36.7597 50.9443 36.795C50.3436 36.8657 49.4603 36.8833 48.2943 36.848C47.1636 36.848 46.0153 36.8303 44.8493 36.795C43.4713 36.7597 42.0226 36.7243 40.5033 36.689C40.2559 36.689 40.0439 36.6537 39.8673 36.583C39.6906 36.5123 39.5316 36.424 39.3903 36.318C39.2489 36.212 39.1429 36.053 39.0723 35.841C38.8956 35.2403 38.8073 34.6573 38.8073 34.092C38.7719 31.3007 38.7543 28.527 38.7543 25.771C38.7543 22.9797 38.7543 20.1883 38.7543 17.397C38.7543 15.8423 38.7543 14.3053 38.7543 12.786C38.7896 11.2667 38.8073 9.72966 38.8073 8.175C38.8426 7.15033 38.8426 6.14333 38.8073 5.154C38.8073 4.12933 38.7719 3.10467 38.7013 2.08C38.7013 1.55 38.9133 1.285 39.3373 1.285C41.5986 1.24967 43.7186 1.21433 45.6973 1.179C47.7113 1.14366 49.8489 1.14366 52.1103 1.179C52.9229 1.179 53.7179 1.26733 54.4953 1.444C55.3079 1.62067 56.1206 1.815 56.9333 2.027C57.9579 2.30967 58.8943 2.769 59.7423 3.405C60.5903 4.00566 61.3676 4.71233 62.0743 5.525C62.4983 6.055 62.7986 6.70867 62.9753 7.486C63.1166 8.19267 63.2226 8.89933 63.2933 9.606C63.3639 10.2773 63.3639 10.931 63.2933 11.567C63.2579 12.203 63.1343 12.839 62.9223 13.475C62.7103 14.0757 62.3746 14.6587 61.9153 15.224C61.8446 15.33 61.7563 15.4537 61.6503 15.595C61.5443 15.701 61.4029 15.8423 61.2263 16.019ZM48.3473 25.135V26.513C48.2766 27.2197 48.2413 27.7497 48.2413 28.103C48.2413 28.4563 48.3119 28.7037 48.4533 28.845C48.6299 28.9863 48.8949 29.057 49.2483 29.057C49.6016 29.057 50.0963 29.0747 50.7323 29.11C51.7923 29.1807 52.7993 29.0393 53.7533 28.686C54.7073 28.3327 55.6083 27.8557 56.4563 27.255C57.8696 26.301 58.1169 25.0643 57.1983 23.545C56.8449 23.015 56.3503 22.538 55.7143 22.114C54.6896 21.4427 53.6296 21.107 52.5343 21.107C51.4743 21.0717 50.3789 21.1247 49.2483 21.266C48.8949 21.3367 48.6653 21.4603 48.5593 21.637C48.4533 21.8137 48.4003 22.061 48.4003 22.379C48.4003 22.6263 48.3826 22.909 48.3473 23.227C48.3473 23.5097 48.3473 23.7923 48.3473 24.075V25.135ZM48.1883 10.666C48.1883 11.62 48.1883 12.362 48.1883 12.892C48.1883 13.3867 48.2943 13.7223 48.5063 13.899C48.7183 14.0757 49.0716 14.1463 49.5663 14.111C50.0609 14.0757 50.8206 14.005 51.8453 13.899C52.2693 13.8283 52.6756 13.7223 53.0643 13.581C53.4529 13.4043 53.8416 13.21 54.2303 12.998C54.7249 12.7153 55.0783 12.3443 55.2903 11.885C55.5023 11.3903 55.5906 10.8603 55.5553 10.295C55.5199 9.72966 55.3256 9.288 54.9723 8.97C54.6189 8.61666 54.1949 8.36933 53.7003 8.228C53.2763 8.122 52.8346 8.05133 52.3753 8.016C51.9513 7.98067 51.5096 7.94533 51.0503 7.91C50.6263 7.87467 50.2023 7.87467 49.7783 7.91C49.3543 7.94533 48.9479 7.963 48.5593 7.963C48.4886 8.42233 48.4179 8.88167 48.3473 9.341C48.3119 9.765 48.2589 10.2067 48.1883 10.666ZM77.4169 36.053H74.5549C73.7776 36.0883 73.3183 36.0353 73.1769 35.894C73.0709 35.7527 73.0179 35.2757 73.0179 34.463C73.0179 33.5797 73.0179 32.6963 73.0179 31.813C73.0533 30.9297 73.0709 30.0463 73.0709 29.163C73.0709 24.9937 73.0709 20.9833 73.0709 17.132C73.0709 13.2807 73.0886 9.288 73.1239 5.154C73.1239 4.97733 73.1063 4.836 73.0709 4.73C73.0709 4.58866 73.0709 4.44733 73.0709 4.306C73.0709 3.776 73.0709 3.36966 73.0709 3.087C73.1063 2.769 73.1946 2.53933 73.3359 2.398C73.5126 2.22133 73.7423 2.11533 74.0249 2.08C74.3429 2.00933 74.7846 1.974 75.3499 1.974C75.6326 1.974 76.3039 1.974 77.3639 1.974C78.4239 1.974 79.6783 1.99167 81.1269 2.027C82.5756 2.027 84.1303 2.04466 85.7909 2.08C87.4516 2.08 89.0239 2.08 90.5079 2.08C92.0273 2.08 93.3523 2.08 94.4829 2.08C95.6489 2.08 96.4439 2.06233 96.8679 2.027C97.6099 2.027 98.0693 2.15067 98.2459 2.398C98.4579 2.61 98.5639 3.034 98.5639 3.67C98.5639 4.58866 98.5463 5.472 98.5109 6.32C98.5109 7.13267 98.5286 7.98067 98.5639 8.864C98.5639 9.64133 98.1929 10.03 97.4509 10.03C97.0269 10.03 96.6029 10.0123 96.1789 9.977C95.7903 9.94167 95.3839 9.924 94.9599 9.924H87.1689H82.8759C82.3459 9.924 82.0103 9.99467 81.8689 10.136C81.7276 10.2773 81.6746 10.613 81.7099 11.143C81.7453 11.8497 81.7806 12.4857 81.8159 13.051C81.8513 13.6163 81.8866 14.2523 81.9219 14.959C81.9573 15.7363 82.3459 16.125 83.0879 16.125C83.3353 16.125 83.6709 16.125 84.0949 16.125C84.5543 16.125 85.0136 16.125 85.4729 16.125C85.9676 16.125 86.4269 16.125 86.8509 16.125C87.3103 16.125 87.6636 16.125 87.9109 16.125C88.7236 16.0543 89.0946 16.4077 89.0239 17.185V20.683C89.0239 21.0717 88.7413 21.3013 88.1759 21.372C87.9286 21.372 87.5753 21.3897 87.1159 21.425C86.6919 21.425 86.2326 21.4427 85.7379 21.478C85.2786 21.5133 84.8193 21.5487 84.3599 21.584C83.9359 21.584 83.6003 21.584 83.3529 21.584C82.9643 21.6193 82.6816 21.7253 82.5049 21.902C82.3283 22.0433 82.2399 22.3083 82.2399 22.697V26.831C82.1693 27.573 82.5403 27.944 83.3529 27.944C83.7416 27.944 84.1126 27.944 84.4659 27.944C84.8193 27.9087 85.1903 27.891 85.5789 27.891C86.9923 27.9263 88.3879 27.944 89.7659 27.944C91.1793 27.944 92.5926 27.9617 94.0059 27.997C94.5713 27.997 95.1189 27.997 95.6489 27.997C96.1789 27.9617 96.7266 27.944 97.2919 27.944C97.7866 27.944 98.1223 28.0147 98.2989 28.156C98.5109 28.2973 98.6346 28.5977 98.6699 29.057C98.7406 29.9757 98.7936 30.8767 98.8289 31.76C98.8996 32.6433 98.9349 33.5443 98.9349 34.463C98.9349 35.205 98.8113 35.682 98.5639 35.894C98.3519 36.106 97.8749 36.1943 97.1329 36.159C96.6383 36.159 95.8963 36.159 94.9069 36.159C93.9529 36.159 92.8399 36.159 91.5679 36.159C90.3313 36.159 89.0063 36.159 87.5929 36.159C86.1796 36.159 84.8193 36.1413 83.5119 36.106C82.2399 36.106 81.0563 36.106 79.9609 36.106C78.8656 36.106 78.0176 36.0883 77.4169 36.053ZM129.026 2.239C129.273 2.27433 129.503 2.292 129.715 2.292C129.962 2.292 130.209 2.32733 130.457 2.398C131.163 2.504 131.605 2.64533 131.782 2.822C131.958 2.99866 132.047 3.458 132.047 4.2C132.047 5.11867 132.029 5.949 131.994 6.691C131.994 7.433 131.976 8.26333 131.941 9.182C131.905 9.78267 131.817 10.1537 131.676 10.295C131.534 10.4363 131.181 10.4893 130.616 10.454C130.192 10.454 129.644 10.4717 128.973 10.507C128.337 10.507 127.701 10.507 127.065 10.507C126.429 10.507 125.846 10.5247 125.316 10.56C124.821 10.56 124.521 10.56 124.415 10.56C123.885 10.56 123.461 10.5777 123.143 10.613C122.86 10.6483 122.648 10.7367 122.507 10.878C122.401 11.0193 122.33 11.2313 122.295 11.514C122.295 11.7967 122.312 12.203 122.348 12.733C122.348 12.8037 122.348 13.3867 122.348 14.482C122.348 15.542 122.33 16.867 122.295 18.457C122.259 20.047 122.224 21.7783 122.189 23.651C122.189 25.4883 122.171 27.202 122.136 28.792C122.1 30.382 122.065 31.707 122.03 32.767C122.03 33.827 122.03 34.3747 122.03 34.41C121.924 35.47 121.358 36.0177 120.334 36.053C120.051 36.053 119.662 36.053 119.168 36.053C118.708 36.053 118.249 36.053 117.79 36.053C117.366 36.053 116.977 36.0353 116.624 36C116.27 36 116.058 36 115.988 36C115.422 36 114.981 36 114.663 36C114.345 35.9647 114.115 35.8763 113.974 35.735C113.832 35.5937 113.744 35.3817 113.709 35.099C113.673 34.781 113.656 34.3393 113.656 33.774C113.656 33.4913 113.656 32.9083 113.656 32.025C113.656 31.1417 113.656 30.0817 113.656 28.845C113.691 27.6083 113.709 26.248 113.709 24.764C113.744 23.28 113.762 21.8137 113.762 20.365C113.797 18.9163 113.815 17.556 113.815 16.284C113.815 14.9767 113.815 13.8813 113.815 12.998V11.567C113.85 10.9663 113.514 10.6307 112.808 10.56C112.348 10.56 111.748 10.5423 111.006 10.507C110.264 10.4717 109.522 10.454 108.78 10.454C108.073 10.4187 107.419 10.3833 106.819 10.348C106.253 10.3127 105.918 10.295 105.812 10.295C105.282 10.2597 104.928 10.1537 104.752 9.977C104.575 9.80033 104.487 9.447 104.487 8.917C104.487 8.10433 104.487 7.41533 104.487 6.85C104.487 6.28466 104.504 5.59566 104.54 4.783V4.147C104.54 3.829 104.522 3.49333 104.487 3.14C104.451 2.78666 104.522 2.504 104.699 2.292C104.805 2.11533 105.034 2.06233 105.388 2.133C105.776 2.16833 106.13 2.186 106.448 2.186C106.907 2.186 107.72 2.186 108.886 2.186C110.087 2.15066 111.447 2.133 112.967 2.133C114.486 2.133 116.094 2.15066 117.79 2.186C119.486 2.186 121.093 2.186 122.613 2.186C124.132 2.186 125.475 2.20367 126.641 2.239C127.807 2.239 128.602 2.239 129.026 2.239ZM170.432 17.132C170.432 18.828 170.415 20.5063 170.379 22.167C170.379 23.8277 170.397 25.506 170.432 27.202C170.468 28.686 170.503 30.0287 170.538 31.23C170.574 32.4313 170.627 33.774 170.697 35.258C170.733 35.8587 170.503 36.159 170.008 36.159C168.772 36.1237 167.535 36.0883 166.298 36.053C165.062 36.053 163.825 36.0353 162.588 36C162.235 36 162.023 35.9117 161.952 35.735C161.882 35.5583 161.846 35.3287 161.846 35.046C161.846 33.9507 161.846 32.9967 161.846 32.184C161.846 31.336 161.829 30.3467 161.793 29.216L161.634 17.927C161.599 17.0437 161.599 16.1603 161.634 15.277C161.67 14.3937 161.67 13.4927 161.634 12.574C161.634 12.1853 161.617 11.885 161.581 11.673C161.546 11.4257 161.458 11.249 161.316 11.143C161.21 11.037 161.034 10.9663 160.786 10.931C160.574 10.8957 160.256 10.8603 159.832 10.825H159.408C159.055 10.825 158.772 10.8427 158.56 10.878C158.384 10.878 158.225 10.9133 158.083 10.984C157.977 11.0547 157.871 11.196 157.765 11.408C157.695 11.5847 157.606 11.832 157.5 12.15C157.076 13.634 156.652 15.118 156.228 16.602C155.84 18.086 155.398 19.5523 154.903 21.001C154.373 22.591 153.808 24.181 153.207 25.771C152.607 27.3257 151.918 28.845 151.14 30.329C150.716 31.1417 150.151 31.9013 149.444 32.608C148.773 33.2793 148.084 33.9507 147.377 34.622C146.777 35.2227 146.088 35.6467 145.31 35.894C144.533 36.106 143.72 36.2297 142.872 36.265C141.706 36.3357 140.576 36.2473 139.48 36C138.385 35.7527 137.307 35.4347 136.247 35.046C135.753 34.8693 135.452 34.675 135.346 34.463C135.205 34.2157 135.17 33.827 135.24 33.297C135.452 32.2723 135.664 31.23 135.876 30.17C136.053 29.11 136.265 28.0677 136.512 27.043C136.654 26.301 137.095 26.036 137.837 26.248C138.014 26.3187 138.173 26.3893 138.314 26.46C138.456 26.4953 138.615 26.5483 138.791 26.619C139.887 27.0077 140.929 27.0607 141.918 26.778C142.943 26.46 143.773 25.824 144.409 24.87C144.692 24.446 144.939 24.0043 145.151 23.545C145.399 23.0857 145.593 22.6087 145.734 22.114C146.229 20.4887 146.706 18.881 147.165 17.291C147.625 15.6657 148.049 14.0403 148.437 12.415C148.826 10.931 149.162 9.42933 149.444 7.91C149.727 6.39067 150.027 4.889 150.345 3.405C150.451 2.80433 150.575 2.43333 150.716 2.292C150.893 2.11533 151.282 1.99167 151.882 1.921C152.024 1.921 152.165 1.921 152.306 1.921C152.448 1.88566 152.571 1.88566 152.677 1.921C153.278 1.921 154.038 1.921 154.956 1.921C155.875 1.88566 156.864 1.868 157.924 1.868C159.02 1.868 160.133 1.868 161.263 1.868C162.394 1.868 163.472 1.868 164.496 1.868C165.521 1.868 166.44 1.868 167.252 1.868C168.065 1.868 168.683 1.868 169.107 1.868C169.743 1.90333 170.114 1.99167 170.22 2.133C170.362 2.27433 170.432 2.68066 170.432 3.352C170.432 5.01267 170.415 6.65567 170.379 8.281C170.379 9.90633 170.362 11.5493 170.326 13.21C170.326 13.528 170.326 13.9167 170.326 14.376C170.326 14.8 170.326 15.224 170.326 15.648C170.362 16.0367 170.379 16.39 170.379 16.708C170.415 16.9907 170.432 17.132 170.432 17.132ZM190.306 28.845C189.917 28.845 189.617 28.8627 189.405 28.898C189.228 28.9333 189.069 29.004 188.928 29.11C188.822 29.1807 188.716 29.322 188.61 29.534C188.539 29.746 188.451 30.0287 188.345 30.382C188.168 31.018 187.974 31.654 187.762 32.29C187.55 32.8907 187.356 33.509 187.179 34.145C186.932 35.3463 186.225 35.947 185.059 35.947C183.787 36.0177 182.515 36.053 181.243 36.053C180.006 36.053 178.752 36.0707 177.48 36.106C176.915 36.106 176.72 35.8233 176.897 35.258C177.745 32.714 178.575 30.17 179.388 27.626C180.236 25.0467 181.066 22.4673 181.879 19.888C182.374 18.3333 182.833 16.7963 183.257 15.277C183.681 13.7223 184.14 12.1677 184.635 10.613C184.988 9.553 185.342 8.493 185.695 7.433C186.084 6.373 186.437 5.29533 186.755 4.2C186.967 3.49333 187.285 2.99867 187.709 2.716C188.133 2.43333 188.663 2.292 189.299 2.292C190.041 2.32733 190.765 2.36266 191.472 2.398C192.214 2.398 192.938 2.398 193.645 2.398C194.458 2.398 195.27 2.398 196.083 2.398C196.896 2.36266 197.708 2.345 198.521 2.345C198.98 2.345 199.422 2.345 199.846 2.345C200.305 2.30966 200.765 2.292 201.224 2.292C201.648 2.292 201.984 2.30966 202.231 2.345C202.478 2.38033 202.673 2.451 202.814 2.557C202.955 2.663 203.061 2.83967 203.132 3.087C203.238 3.299 203.344 3.617 203.45 4.041C204.157 6.797 204.863 9.553 205.57 12.309C206.277 15.0297 207.001 17.768 207.743 20.524C208.308 22.6087 208.874 24.658 209.439 26.672C210.04 28.686 210.64 30.7177 211.241 32.767C211.453 33.615 211.594 34.2687 211.665 34.728C211.771 35.152 211.753 35.47 211.612 35.682C211.506 35.894 211.259 36 210.87 36C210.517 36.0353 209.987 36.0353 209.28 36C208.079 36 206.877 35.9823 205.676 35.947C204.51 35.9117 203.326 35.8763 202.125 35.841C201.489 35.8057 201.118 35.4877 201.012 34.887C200.941 34.357 200.853 33.827 200.747 33.297C200.641 32.7317 200.535 32.184 200.429 31.654C200.358 31.3713 200.288 31.1063 200.217 30.859C200.146 30.6117 200.076 30.3467 200.005 30.064C199.828 29.3573 199.404 29.004 198.733 29.004C198.274 29.0393 197.814 29.057 197.355 29.057C196.931 29.0217 196.507 29.004 196.083 29.004C196.083 29.004 195.871 29.004 195.447 29.004C195.023 28.9687 194.511 28.951 193.91 28.951C193.309 28.9157 192.673 28.898 192.002 28.898C191.331 28.8627 190.765 28.845 190.306 28.845ZM195.659 10.507C195.588 10.401 195.482 10.5247 195.341 10.878C195.2 11.196 195.094 11.408 195.023 11.514L193.592 15.807C193.203 16.9377 192.797 18.086 192.373 19.252C191.949 20.418 191.543 21.584 191.154 22.75C190.977 23.2447 190.942 23.5627 191.048 23.704C191.189 23.8453 191.525 23.916 192.055 23.916C192.903 23.9513 193.751 23.969 194.599 23.969C195.447 23.969 196.295 23.969 197.143 23.969C197.814 23.9337 198.203 23.863 198.309 23.757C198.415 23.6157 198.38 23.1917 198.203 22.485C197.92 21.0363 197.62 19.6053 197.302 18.192C196.984 16.7787 196.666 15.3477 196.348 13.899C196.277 13.6517 196.207 13.3337 196.136 12.945C196.101 12.5563 196.048 12.1853 195.977 11.832C195.906 11.4787 195.836 11.1783 195.765 10.931C195.73 10.6483 195.694 10.507 195.659 10.507ZM246.209 31.018C246.244 31.9367 246.262 32.6787 246.262 33.244C246.297 33.774 246.315 34.4983 246.315 35.417C246.315 35.8057 246.226 36.053 246.05 36.159C245.908 36.3003 245.608 36.3533 245.149 36.318C244.124 36.2827 243.099 36.2473 242.075 36.212C241.05 36.212 240.025 36.212 239.001 36.212C238.4 36.212 238.029 36.159 237.888 36.053C237.782 35.947 237.711 35.5937 237.676 34.993C237.605 33.3323 237.517 31.6363 237.411 29.905C237.34 28.1737 237.269 26.4777 237.199 24.817C237.199 24.6403 237.199 24.446 237.199 24.234C237.199 24.022 237.181 23.81 237.146 23.598C237.146 23.174 236.881 22.9267 236.351 22.856C234.937 22.7853 233.524 22.7853 232.111 22.856C230.733 22.8913 229.355 22.8737 227.977 22.803C227.27 22.7677 226.952 23.1033 227.023 23.81C227.058 25.5413 227.04 27.2197 226.97 28.845C226.899 30.4703 226.899 32.2193 226.97 34.092C227.005 34.3393 227.023 34.5867 227.023 34.834C227.058 35.046 227.058 35.2757 227.023 35.523C227.023 36.0177 226.775 36.265 226.281 36.265C225.927 36.265 225.574 36.2473 225.221 36.212C224.903 36.212 224.567 36.1943 224.214 36.159C223.26 36.0883 222.306 36.0707 221.352 36.106C220.398 36.1767 219.444 36.1767 218.49 36.106C217.854 36.0353 217.447 35.9293 217.271 35.788C217.094 35.6113 217.006 35.2227 217.006 34.622C217.006 32.6433 216.988 30.806 216.953 29.11C216.917 27.3787 216.917 25.5237 216.953 23.545C216.988 20.4003 217.023 17.291 217.059 14.217C217.129 11.1077 217.2 7.98067 217.271 4.836V3.193C217.271 2.52167 217.606 2.186 218.278 2.186C218.772 2.186 219.267 2.186 219.762 2.186C220.292 2.15066 220.822 2.15066 221.352 2.186C222.058 2.22133 222.73 2.25667 223.366 2.292C224.037 2.292 224.726 2.32733 225.433 2.398C226.139 2.46867 226.563 2.57467 226.705 2.716C226.881 2.822 226.97 3.22833 226.97 3.935C227.005 5.631 227.023 7.15033 227.023 8.493C227.023 9.80033 227.005 11.2843 226.97 12.945C226.97 13.581 226.97 14.0933 226.97 14.482C227.005 14.8353 227.093 15.1003 227.235 15.277C227.411 15.4537 227.676 15.5597 228.03 15.595C228.383 15.6303 228.878 15.648 229.514 15.648C230.644 15.648 231.74 15.6303 232.8 15.595C233.895 15.5243 234.99 15.4713 236.086 15.436C236.792 15.436 237.146 15.1357 237.146 14.535C237.11 14.3583 237.093 14.1817 237.093 14.005C237.128 13.8283 237.146 13.6517 237.146 13.475C237.075 11.567 237.022 9.83567 236.987 8.281C236.951 6.72633 236.898 4.995 236.828 3.087C236.757 2.52166 236.969 2.239 237.464 2.239H243.983C244.371 2.239 244.654 2.25667 244.831 2.292C245.361 2.36267 245.696 2.48633 245.838 2.663C246.014 2.80433 246.12 3.15767 246.156 3.723C246.262 6.267 246.315 8.79333 246.315 11.302C246.315 12.68 246.297 14.058 246.262 15.436C246.226 16.7787 246.191 18.139 246.156 19.517C246.156 19.517 246.156 19.941 246.156 20.789C246.156 21.637 246.156 22.6617 246.156 23.863C246.156 25.029 246.156 26.2833 246.156 27.626C246.191 28.9333 246.209 30.064 246.209 31.018ZM265.924 28.845C265.536 28.845 265.235 28.8627 265.023 28.898C264.847 28.9333 264.688 29.004 264.546 29.11C264.44 29.1807 264.334 29.322 264.228 29.534C264.158 29.746 264.069 30.0287 263.963 30.382C263.787 31.018 263.592 31.654 263.38 32.29C263.168 32.8907 262.974 33.509 262.797 34.145C262.55 35.3463 261.843 35.947 260.677 35.947C259.405 36.0177 258.133 36.053 256.861 36.053C255.625 36.053 254.37 36.0707 253.098 36.106C252.533 36.106 252.339 35.8233 252.515 35.258C253.363 32.714 254.194 30.17 255.006 27.626C255.854 25.0467 256.685 22.4673 257.497 19.888C257.992 18.3333 258.451 16.7963 258.875 15.277C259.299 13.7223 259.759 12.1677 260.253 10.613C260.607 9.553 260.96 8.493 261.313 7.433C261.702 6.373 262.055 5.29533 262.373 4.2C262.585 3.49333 262.903 2.99867 263.327 2.716C263.751 2.43333 264.281 2.292 264.917 2.292C265.659 2.32733 266.384 2.36266 267.09 2.398C267.832 2.398 268.557 2.398 269.263 2.398C270.076 2.398 270.889 2.398 271.701 2.398C272.514 2.36266 273.327 2.345 274.139 2.345C274.599 2.345 275.04 2.345 275.464 2.345C275.924 2.30966 276.383 2.292 276.842 2.292C277.266 2.292 277.602 2.30966 277.849 2.345C278.097 2.38033 278.291 2.451 278.432 2.557C278.574 2.663 278.68 2.83967 278.75 3.087C278.856 3.299 278.962 3.617 279.068 4.041C279.775 6.797 280.482 9.553 281.188 12.309C281.895 15.0297 282.619 17.768 283.361 20.524C283.927 22.6087 284.492 24.658 285.057 26.672C285.658 28.686 286.259 30.7177 286.859 32.767C287.071 33.615 287.213 34.2687 287.283 34.728C287.389 35.152 287.372 35.47 287.23 35.682C287.124 35.894 286.877 36 286.488 36C286.135 36.0353 285.605 36.0353 284.898 36C283.697 36 282.496 35.9823 281.294 35.947C280.128 35.9117 278.945 35.8763 277.743 35.841C277.107 35.8057 276.736 35.4877 276.63 34.887C276.56 34.357 276.471 33.827 276.365 33.297C276.259 32.7317 276.153 32.184 276.047 31.654C275.977 31.3713 275.906 31.1063 275.835 30.859C275.765 30.6117 275.694 30.3467 275.623 30.064C275.447 29.3573 275.023 29.004 274.351 29.004C273.892 29.0393 273.433 29.057 272.973 29.057C272.549 29.0217 272.125 29.004 271.701 29.004C271.701 29.004 271.489 29.004 271.065 29.004C270.641 28.9687 270.129 28.951 269.528 28.951C268.928 28.9157 268.292 28.898 267.62 28.898C266.949 28.8627 266.384 28.845 265.924 28.845ZM271.277 10.507C271.207 10.401 271.101 10.5247 270.959 10.878C270.818 11.196 270.712 11.408 270.641 11.514L269.21 15.807C268.822 16.9377 268.415 18.086 267.991 19.252C267.567 20.418 267.161 21.584 266.772 22.75C266.596 23.2447 266.56 23.5627 266.666 23.704C266.808 23.8453 267.143 23.916 267.673 23.916C268.521 23.9513 269.369 23.969 270.217 23.969C271.065 23.969 271.913 23.969 272.761 23.969C273.433 23.9337 273.821 23.863 273.927 23.757C274.033 23.6157 273.998 23.1917 273.821 22.485C273.539 21.0363 273.238 19.6053 272.92 18.192C272.602 16.7787 272.284 15.3477 271.966 13.899C271.896 13.6517 271.825 13.3337 271.754 12.945C271.719 12.5563 271.666 12.1853 271.595 11.832C271.525 11.4787 271.454 11.1783 271.383 10.931C271.348 10.6483 271.313 10.507 271.277 10.507Z" fill="#2D2942"/>
</svg>
