<svg width="18" height="20" viewBox="0 0 18 20" fill="none" xmlns="http://www.w3.org/2000/svg">
<path d="M13.0998 9.07327C15.6319 9.07327 17.6846 7.10778 17.6846 4.68321C17.6846 2.25865 15.6319 0.293152 13.0998 0.293152C10.5676 0.293152 8.51489 2.25865 8.51489 4.68321C8.51489 7.10778 10.5676 9.07327 13.0998 9.07327Z" fill="#2D2942"/>
<path d="M17.3792 4.68303C17.3792 4.84486 17.5159 4.976 17.6847 4.976C17.8534 4.976 17.9902 4.84486 17.9902 4.68303C17.9902 2.10077 15.7963 0 13.0998 0C11.5733 0 10.2081 0.673357 9.31067 1.72601C8.91298 1.33121 8.3275 1.14765 7.7436 1.25968C7.29529 1.34605 6.90898 1.59433 6.65568 1.95882C6.40234 2.32339 6.31241 2.76065 6.40246 3.19026C6.43513 3.34542 6.49052 3.49346 6.56611 3.631C4.1687 4.2869 2.47338 6.40626 2.47338 8.83125C2.47338 9.55074 2.61011 9.49215 2.77885 9.49215C2.94759 9.49215 3.08432 9.60934 3.08432 8.83125C3.08432 6.53486 4.78925 4.54557 7.1382 4.10077C7.13853 4.10073 7.13885 4.10065 7.13922 4.10057H7.13926C7.46118 4.03995 7.79146 4.0092 8.12084 4.0092C8.16735 4.0092 8.21374 4.00998 8.26001 4.0112C8.22694 4.23069 8.20947 4.4549 8.20947 4.68303C8.20947 7.26525 10.4032 9.3661 13.0998 9.3661C13.119 9.3661 13.1381 9.3652 13.1573 9.365V10.7816C13.1573 11.9251 13.6835 13.001 14.6009 13.7334L14.9684 14.0269C15.3383 14.3222 15.5505 14.7559 15.5505 15.2167V15.2351C15.5505 16.0783 14.8339 16.7642 13.9531 16.7642H2.20831C1.32749 16.7642 0.610901 16.0783 0.610901 15.2351C0.610901 15.0048 0.6656 14.7738 0.769094 14.567C0.872791 14.3595 1.02626 14.1737 1.21325 14.0294L1.59032 13.7378C2.53981 13.0046 3.08432 11.9142 3.08432 10.7461V10.1039C3.08432 9.3359 2.94759 9.49215 2.77885 9.49215C2.61011 9.49215 2.47338 9.39449 2.47338 10.1039V10.7461C2.47338 11.736 2.01187 12.66 1.20702 13.2815L0.830025 13.573C0.572656 13.7716 0.361026 14.0278 0.218228 14.3136C0.0754308 14.599 0 14.9176 0 15.2351C0 16.4013 0.990662 17.3501 2.20835 17.3501H5.40622C5.4052 17.379 5.40431 17.4079 5.40431 17.4368C5.40431 18.8502 6.60497 20 8.08076 20C9.55655 20 10.7572 18.8501 10.7572 17.4368C10.7572 17.4079 10.7563 17.379 10.7553 17.3501H13.9532C15.1709 17.3501 16.1615 16.4013 16.1615 15.2351V15.2167C16.1615 14.5813 15.8691 13.9835 15.3594 13.5765L14.9919 13.2832C14.2143 12.6623 13.7684 11.7506 13.7684 10.7816V9.32223C14.5987 9.21442 15.3799 8.90614 16.0569 8.41325C16.8854 7.81013 17.5021 6.95396 17.7933 6.00248C18.2406 3.76952 17.8466 5.02158 17.6847 4.976C17.5228 4.93045 17.3792 3.84764 17.2071 5.83744C16.9524 6.66954 16.4127 7.41856 15.6875 7.94649C14.9384 8.49184 14.0436 8.78008 13.0998 8.78008C10.7402 8.78008 8.82049 6.94212 8.82049 4.68295C8.82041 2.4239 10.7401 0.585935 13.0998 0.585935C15.4595 0.585935 17.3792 2.4239 17.3792 4.68303ZM10.1462 17.4367C10.1462 18.527 9.21964 19.414 8.08072 19.414C6.9418 19.414 6.01521 18.527 6.01521 17.4367C6.01521 17.4079 6.01594 17.379 6.01729 17.35H10.1442C10.1455 17.379 10.1462 17.4079 10.1462 17.4367ZM8.12084 3.42327C7.81178 3.42327 7.50208 3.4478 7.19742 3.49561C7.10089 3.37186 7.03381 3.22866 7.00139 3.0746C6.94359 2.79878 7.00139 2.51792 7.1641 2.28374C7.32694 2.04937 7.57551 1.88968 7.86375 1.83417C8.27724 1.7546 8.69244 1.90562 8.94569 2.21484C8.70302 2.58804 8.51359 2.99604 8.38774 3.42921C8.29936 3.42526 8.2102 3.42327 8.12084 3.42327Z" fill="#2D2942"/>
<path d="M13.0997 6.72C13.2684 6.72 13.4051 6.58887 13.4051 6.42703V2.77678C13.4051 2.66076 13.3338 2.55572 13.2231 2.50881C13.1125 2.46197 12.9834 2.48205 12.894 2.56014L12.2389 3.1322C12.1141 3.24111 12.1051 3.42642 12.2186 3.54607C12.3322 3.66572 12.5254 3.67443 12.6501 3.56548L12.7942 3.4397V6.42707C12.7942 6.58887 12.931 6.72 13.0997 6.72Z" fill="#2D2942"/>
</svg>
